<svg xmlns="http://www.w3.org/2000/svg" viewBox="0 0 1000 1000" xml:space="preserve"><path d="M653 199.4h9.5V140H331.8v59.4H653zm88.5-179.6h-60.4V275h60.4V19.8zm-426.8 0h-60.4V275h60.4V19.8zm613.5 121.6H760v59.4H926.8V321h-855V200.8h165.3v-59.4H10V980.1h980V141.4h-61.8zm-1.4 779.4h-855V380.5h855.1v540.3zM289.2 446.6h-94.3v92.8h94.3v-92.8zm257.9 0h-94.3v92.8h94.3v-92.8zm258 0h-94.3v92.8h94.3v-92.8zM289.2 603.5h-94.3v92.8h94.3v-92.8zm257.9 0h-94.3v92.8h94.3v-92.8zm258 0h-94.3v92.8h94.3v-92.8zM289.2 760.3h-94.3v92.8h94.3v-92.8zm257.9 0h-94.3v92.8h94.3v-92.8z"/></svg>